<svg id="Layer_1" data-name="Layer 1" xmlns="http://www.w3.org/2000/svg" viewBox="0 0 1023.02 815.59"><defs><style>.cls-1{fill:none;stroke:#4f46e5;stroke-miterlimit:10;stroke-width:30px;}.cls-2{fill:#4f46e5;}.cls-3{fill:#fff;}</style></defs><path class="cls-1" d="M957.58,495.07A138.89,138.89,0,1,0,818.7,356.18,138.89,138.89,0,0,0,957.58,495.07Z" transform="translate(-88.45 -192.21)"/><path class="cls-1" d="M242.34,495.07A138.89,138.89,0,1,0,103.45,356.18,138.89,138.89,0,0,0,242.34,495.07Z" transform="translate(-88.45 -192.21)"/><path class="cls-2" d="M1095.86,600.31C1083,375.15,903.74,192.21,601.49,192.21h-3.67c-301,0-480.91,182.94-493.76,408.1C90.6,842,231.94,1007.79,598.43,1007.79h3.67C968.6,1007.79,1109.93,842,1095.86,600.31Z" transform="translate(-88.45 -192.21)"/><path class="cls-3" d="M489.38,790.82A11,11,0,0,1,484.1,788c-5.28-2.86-6.65-9.22-5.56-13.45l21-128.42-94-90.33c-3.14-5.32-4.88-10.28-3.43-15.92s6.77-8.78,11.73-10.51L542.11,509.7,599.4,392.12c2.86-5.28,8.18-8.42,12.78-8.74,6,0,11.28,2.9,13,7.85L684.1,507.12l129.14,18.16c5.64,1.45,9.51,4,12.29,10.68s.28,10.6-4,15.51l-92.79,91.91L751.56,771c1.73,5-1.49,11.65-5,13.74-3.91,3.51-9.92,3.47-15.2.61L615.89,725.63,501.06,786.31C496.79,791.23,492.2,791.55,489.38,790.82ZM447.87,554.63l78.25,75.75c3.5,3.9,5.24,8.86,4.15,13.09l-17,106.9L609,699.8c3.55-2.1,9.55-2.06,13.42.44l95.38,50.08L698.73,643.18c-.32-4.59.77-8.82,4.68-12.33l76.79-76.47L672.94,538.83c-4.23-1.09-9.51-4-11.6-7.5l-48.8-96.74L564.92,532.1c-2.5,3.87-6.41,7.37-11,7.7Z" transform="translate(-88.45 -192.21)"/></svg>